<?xml version="1.0" encoding="utf-8"?>
<!-- Generator: Adobe Illustrator 25.4.1, SVG Export Plug-In . SVG Version: 6.00 Build 0)  -->
<svg version="1.1" id="Layer_1" xmlns="http://www.w3.org/2000/svg" xmlns:xlink="http://www.w3.org/1999/xlink" x="0px" y="0px"
	 viewBox="0 0 32 32" style="enable-background:new 0 0 32 32;" xml:space="preserve">
<style type="text/css">
	.st0{fill:url(#SVGID_1_);fill-opacity:0.5;}
	.st1{fill-rule:evenodd;clip-rule:evenodd;fill:#00DB9A;filter:url(#Adobe_OpacityMaskFilter);}
	.st2{mask:url(#mask0_00000073000792652228317450000007791527658198870404_);}
	
		.st3{clip-path:url(#SVGID_00000180359284398899488360000014403497813512689308_);fill-rule:evenodd;clip-rule:evenodd;fill:#03CA8E;}
</style>
<radialGradient id="SVGID_1_" cx="-254.8481" cy="448.3766" r="1" gradientTransform="matrix(5.0454 17.162 12.9762 -3.8148 -4516.855 6100.2109)" gradientUnits="userSpaceOnUse">
	<stop  offset="0" style="stop-color:#FFFFFF"/>
	<stop  offset="1" style="stop-color:#00B67F"/>
</radialGradient>
<path class="st0" d="M20.4,16c0-5.8,3.1-11,7.8-13.8C25.8,0.8,23,0,20,0C11.2,0,4,7.2,4,16s7.2,16,16,16c3,0,5.8-0.8,8.2-2.2
	C23.5,27,20.4,21.8,20.4,16z"/>
<defs>
	<filter id="Adobe_OpacityMaskFilter" filterUnits="userSpaceOnUse" x="4" y="0" width="38.2" height="39">
		<feColorMatrix  type="matrix" values="1 0 0 0 0  0 1 0 0 0  0 0 1 0 0  0 0 0 1 0"/>
	</filter>
</defs>
<mask maskUnits="userSpaceOnUse" x="4" y="0" width="38.2" height="39" id="mask0_00000073000792652228317450000007791527658198870404_">
	<path class="st1" d="M28.2,2.2C23.5,5,20.4,10.2,20.4,16s3.1,11,7.8,13.8C25.8,31.2,23,32,20,32c-8.8,0-16-7.2-16-16S11.2,0,20,0
		C23,0,25.8,0.8,28.2,2.2z"/>
</mask>
<g class="st2">
	<defs>
		<path id="SVGID_00000111897773517566092830000001345444707405037748_" d="M20.4,16c0-5.8,3.1-11,7.8-13.8C25.8,0.8,23,0,20,0
			C11.2,0,4,7.2,4,16s7.2,16,16,16c3,0,5.8-0.8,8.2-2.2C23.5,27,20.4,21.8,20.4,16z"/>
	</defs>
	<clipPath id="SVGID_00000080181847560987260490000014591865733722944688_">
		<use xlink:href="#SVGID_00000111897773517566092830000001345444707405037748_"  style="overflow:visible;"/>
	</clipPath>
	
		<path style="clip-path:url(#SVGID_00000080181847560987260490000014591865733722944688_);fill-rule:evenodd;clip-rule:evenodd;fill:#03CA8E;" d="
		M42.2,4.2C36.7,7.5,33,13.4,33,20.3s3.7,12.8,9.2,16.1C39.4,38,36.1,39,32.6,39c-10.4,0-18.8-8.4-18.8-18.7
		c0-10.3,8.4-18.7,18.8-18.7C36.1,1.6,39.4,2.5,42.2,4.2z"/>
</g>
</svg>
