<?xml version="1.0" encoding="utf-8"?>
<!-- Generator: Adobe Illustrator 25.2.1, SVG Export Plug-In . SVG Version: 6.00 Build 0)  -->
<svg version="1.1" id="레이어_1" xmlns="http://www.w3.org/2000/svg" xmlns:xlink="http://www.w3.org/1999/xlink" x="0px"
	 y="0px" viewBox="0 0 80 80" style="enable-background:new 0 0 80 80;" xml:space="preserve">
<style type="text/css">
	.st0{fill-rule:evenodd;clip-rule:evenodd;fill:#FFF1A0;}
	.st1{fill-rule:evenodd;clip-rule:evenodd;fill:url(#SVGID_1_);fill-opacity:0.5;}
	.st2{fill-rule:evenodd;clip-rule:evenodd;fill:#00DB9A;filter:url(#Adobe_OpacityMaskFilter);}
	.st3{mask:url(#mask0_1_);}
	.st4{fill-rule:evenodd;clip-rule:evenodd;fill:#FF9900;}
</style>
<path class="st0" d="M70.5,5.6C58.8,12.6,51,25.4,51,40s7.8,27.4,19.5,34.4c-6,3.6-13,5.6-20.5,5.6c-22.1,0-40-17.9-40-40
	S27.9,0,50,0C57.5,0,64.5,2.1,70.5,5.6z"/>
<radialGradient id="SVGID_1_" cx="-247.2055" cy="465.0039" r="1" gradientTransform="matrix(12.6134 42.905 32.4404 -9.537 -11927.9209 15081.1816)" gradientUnits="userSpaceOnUse">
	<stop  offset="0" style="stop-color:#FFFFFF"/>
	<stop  offset="1" style="stop-color:#FF9900"/>
</radialGradient>
<path class="st1" d="M70.5,5.6C58.8,12.6,51,25.4,51,40s7.8,27.4,19.5,34.4c-6,3.6-13,5.6-20.5,5.6c-22.1,0-40-17.9-40-40
	S27.9,0,50,0C57.5,0,64.5,2.1,70.5,5.6z"/>
<defs>
	<filter id="Adobe_OpacityMaskFilter" filterUnits="userSpaceOnUse" x="34.4" y="3.9" width="71.2" height="93.7">
		<feColorMatrix  type="matrix" values="1 0 0 0 0  0 1 0 0 0  0 0 1 0 0  0 0 0 1 0"/>
	</filter>
</defs>
<mask maskUnits="userSpaceOnUse" x="34.4" y="3.9" width="71.2" height="93.7" id="mask0_1_">
	<path class="st2" d="M70.5,5.6C58.8,12.6,51,25.4,51,40s7.8,27.4,19.5,34.4c-6,3.6-13,5.6-20.5,5.6c-22.1,0-40-17.9-40-40
		S27.9,0,50,0C57.5,0,64.5,2.1,70.5,5.6z"/>
</mask>
<g class="st3">
	<path class="st4" d="M105.6,10.5c-13.8,8.2-23,23.1-23,40.2s9.2,32.1,23,40.2c-7.1,4.2-15.3,6.6-24.1,6.6c-26,0-47.1-21-47.1-46.8
		S55.5,3.9,81.5,3.9C90.3,3.9,98.6,6.3,105.6,10.5z"/>
</g>
</svg>
