<svg width="80" height="76" viewBox="0 0 80 76" fill="none" xmlns="http://www.w3.org/2000/svg">
<path fill-rule="evenodd" clip-rule="evenodd" d="M40.0002 62C49.9413 62 58.0002 53.9411 58.0002 44C58.0002 34.0589 49.9413 26 40.0002 26C30.0591 26 22.0002 34.0589 22.0002 44C22.0002 53.9411 30.0591 62 40.0002 62ZM54.0002 44C54.0002 51.732 47.7322 58 40.0002 58C32.2682 58 26.0002 51.732 26.0002 44C26.0002 36.268 32.2682 30 40.0002 30C47.7322 30 54.0002 36.268 54.0002 44Z" fill="#222222" fill-opacity="0.6"/>
<path fill-rule="evenodd" clip-rule="evenodd" d="M64 12H59.9623C59.4517 5.28755 53.8434 0 47.0002 0H33.0002C26.157 0 20.5487 5.28755 20.0381 12H16C7.16344 12 0 19.1634 0 28V60C0 68.8366 7.16344 76 16 76H64C72.8366 76 80 68.8366 80 60V28C80 19.1634 72.8366 12 64 12ZM33.0002 4H47.0002C51.6328 4 55.4478 7.50005 55.9453 12H24.0551C24.5526 7.50005 28.3676 4 33.0002 4ZM64 16H16C9.37258 16 4 21.3726 4 28V60C4 66.6274 9.37258 72 16 72H64C70.6274 72 76 66.6274 76 60V28C76 21.3726 70.6274 16 64 16Z" fill="#222222" fill-opacity="0.6"/>
</svg>
