<svg width="49" height="50" viewBox="0 0 49 50" fill="none" xmlns="http://www.w3.org/2000/svg">
<path d="M46.5004 23.5L41.8004 20.3999L41.7004 20.3L41.8004 20.2L44.4004 15.0999C44.9004 13.9999 44.1004 12.6 42.9004 12.5L37.2004 12.2H37.0004V12L36.7004 6.29996C36.6004 5.09996 35.2004 4.19996 34.1004 4.79996L29.0004 7.39995L28.9004 7.49995L28.8004 7.39995L25.7004 2.69995C25.0004 1.69995 23.4004 1.69995 22.7004 2.69995L19.6004 7.39995L19.5004 7.49995L19.4004 7.39995L14.3004 4.79996C13.2004 4.29996 11.8004 5.09996 11.7004 6.29996L11.4004 12V12.2H11.2004L5.50037 12.5C4.30037 12.6 3.40037 13.9999 4.00037 15.0999L6.60037 20.2L6.70038 20.3L6.60037 20.3999L1.90039 23.5C0.900391 24.2 0.900391 25.8 1.90039 26.5L6.60037 29.5999L6.70038 29.7L6.60037 29.8L4.00037 34.8999C3.50037 35.9999 4.30037 37.4 5.50037 37.5L11.2004 37.8H11.4004V38L11.7004 43.7C11.8004 44.9 13.2004 45.8 14.3004 45.2L19.4004 42.5999L19.5004 42.5L19.6004 42.5999L22.7004 47.3C23.4004 48.3 25.0004 48.3 25.7004 47.3L28.8004 42.5999L28.9004 42.5L29.0004 42.5999L34.1004 45.2C35.2004 45.7 36.6004 44.9 36.7004 43.7L37.0004 38V37.8H37.2004L42.9004 37.5C44.1004 37.4 45.0004 35.9999 44.4004 34.8999L41.8004 29.8L41.7004 29.7L41.8004 29.5999L46.5004 26.5C47.6004 25.9 47.6004 24.2 46.5004 23.5Z" stroke="#222222" stroke-width="2" stroke-miterlimit="10" stroke-linecap="round" stroke-linejoin="round"/>
<path d="M24.1006 38.5C31.5564 38.5 37.6006 32.4558 37.6006 25C37.6006 17.5442 31.5564 11.5 24.1006 11.5C16.6447 11.5 10.6006 17.5442 10.6006 25C10.6006 32.4558 16.6447 38.5 24.1006 38.5Z" stroke="#222222" stroke-width="2" stroke-miterlimit="10" stroke-linecap="round" stroke-linejoin="round"/>
<path d="M18.6006 25.9999L22.0006 30.2999L28.9006 19.7999" stroke="#222222" stroke-width="2" stroke-miterlimit="10" stroke-linecap="round" stroke-linejoin="round"/>
</svg>
