<svg width="49" height="50" viewBox="0 0 49 50" fill="none" xmlns="http://www.w3.org/2000/svg">
<path d="M46.9003 23.5L42.2003 20.3999L42.1003 20.3L42.2003 20.2L44.8003 15.0999C45.3003 13.9999 44.5003 12.6 43.3003 12.5L37.6003 12.2H37.4003V12L37.1003 6.29996C37.0003 5.09996 35.6003 4.19996 34.5003 4.79996L29.4003 7.39995L29.3003 7.49995L29.2003 7.39995L26.1003 2.69995C25.4003 1.69995 23.8003 1.69995 23.1003 2.69995L20.0003 7.39995L19.9003 7.49995L19.8003 7.39995L14.7003 4.79996C13.6003 4.29996 12.2003 5.09996 12.1003 6.29996L11.8003 12V12.2H11.6003L5.9003 12.5C4.7003 12.6 3.8003 13.9999 4.4003 15.0999L7.00029 20.2L7.1003 20.3L7.00029 20.3999L2.30029 23.5C1.30029 24.2 1.30029 25.8 2.30029 26.5L7.00029 29.5999L7.1003 29.7L7.00029 29.8L4.4003 34.8999C3.9003 35.9999 4.7003 37.4 5.9003 37.5L11.6003 37.8H11.8003V38L12.1003 43.7C12.2003 44.9 13.6003 45.8 14.7003 45.2L19.8003 42.5999L19.9003 42.5L20.0003 42.5999L23.1003 47.3C23.8003 48.3 25.4003 48.3 26.1003 47.3L29.2003 42.5999L29.3003 42.5L29.4003 42.5999L34.5003 45.2C35.6003 45.7 37.0003 44.9 37.1003 43.7L37.4003 38V37.8H37.6003L43.3003 37.5C44.5003 37.4 45.4003 35.9999 44.8003 34.8999L42.2003 29.8L42.1003 29.7L42.2003 29.5999L46.9003 26.5C48.0003 25.9 48.0003 24.2 46.9003 23.5Z" stroke="#222222" stroke-width="2" stroke-miterlimit="10" stroke-linecap="round" stroke-linejoin="round"/>
<path d="M24.5005 38.5C31.9563 38.5 38.0005 32.4558 38.0005 25C38.0005 17.5442 31.9563 11.5 24.5005 11.5C17.0446 11.5 11.0005 17.5442 11.0005 25C11.0005 32.4558 17.0446 38.5 24.5005 38.5Z" stroke="#222222" stroke-width="2" stroke-miterlimit="10" stroke-linecap="round" stroke-linejoin="round"/>
<path d="M23.6002 29.8C22.2002 29.8 21.7002 29.3 21.7002 27.9V21.3C21.7002 20.5 22.3002 20.1 22.9002 20.1C23.5002 20.1 24.1002 20.5 24.1002 21.3V27.3C24.1002 27.6 24.2002 27.6 24.4002 27.6H27.1002C27.8002 27.6 28.1002 28.1 28.1002 28.6C28.1002 29.1 27.8002 29.7 27.1002 29.7H23.6002V29.8Z" fill="#222222"/>
</svg>
