<svg width="49" height="49" viewBox="0 0 49 49" fill="none" xmlns="http://www.w3.org/2000/svg">
<path d="M24.0798 27.2801C31.2871 27.2801 37.1298 21.4374 37.1298 14.2301C37.1298 7.02274 31.2871 1.18005 24.0798 1.18005C16.8725 1.18005 11.0298 7.02274 11.0298 14.2301C11.0298 21.4374 16.8725 27.2801 24.0798 27.2801Z" stroke="#222222" stroke-width="2" stroke-linecap="round" stroke-linejoin="round"/>
<path d="M5.33008 47.51C5.33008 42.3541 7.37822 37.4095 11.0239 33.7638C14.6696 30.1181 19.6143 28.0699 24.7701 28.0699C27.3238 28.0686 29.8528 28.5705 32.2125 29.5469C34.5722 30.5232 36.7165 31.955 38.5227 33.7603C40.3289 35.5656 41.7618 37.7091 42.7393 40.0683C43.7169 42.4275 44.2201 44.9562 44.2201 47.51" stroke="#222222" stroke-width="2" stroke-linecap="round" stroke-linejoin="round"/>
</svg>
