<svg width="120" height="120" viewBox="0 0 120 120" fill="none" xmlns="http://www.w3.org/2000/svg">
<g clip-path="url(#clip0)">
<rect width="120" height="120" fill="#D1F3DF"/>
<path fill-rule="evenodd" clip-rule="evenodd" d="M77.0545 49.8605C51.9044 60.0602 14.7748 55.4601 -5.59725 32.3088C-6.84312 30.8987 -4.91271 28.982 -3.68053 30.3921C15.117 51.7636 51.6443 57.5 76.9313 46.6569C78.0864 46.1658 79.1713 45.66 80.189 45.1419C75.0086 39.1339 72.234 32.1224 73.2074 25.7646C73.9193 21.1097 77.2051 16.5507 81.9148 15.3322C94.1878 12.1618 106.371 32.3938 84.9831 45.8602C94.2652 54.7537 109.514 60.619 125.315 54.5017C127.095 53.8035 127.848 56.6649 126.095 57.3357C109.459 63.742 92.4475 57.4503 82.3094 47.4117C80.7142 48.2658 78.9658 49.085 77.0545 49.8605ZM79.1766 20.1377C88.2856 11.257 104.719 30.4969 82.8635 43.6618C75.7169 35.6232 73.3306 25.8682 79.1766 20.1377Z" fill="#03CA8E"/>
<path d="M40.007 73.094C38.5284 74.956 40.9927 77.2013 42.3344 75.2435C43.3612 73.2994 41.2802 71.8344 40.007 73.094Z" fill="#03CA8E"/>
<path d="M79.4369 73.7237C79.2287 73.5228 78.9661 73.3873 78.6816 73.3342C78.3972 73.281 78.1033 73.3125 77.8366 73.4247C77.5699 73.537 77.3419 73.725 77.181 73.9655C77.0202 74.2061 76.9334 74.4886 76.9315 74.7779C76.9315 75.6131 77.0273 76.3524 77.8625 76.6262C78.0286 76.721 78.2193 76.7639 78.4101 76.7494C78.732 76.6931 79.0328 76.5511 79.2809 76.3385C79.5291 76.1259 79.7154 75.8504 79.8204 75.541C79.9255 75.2315 79.9453 74.8995 79.8778 74.5798C79.8103 74.26 79.658 73.9643 79.4369 73.7237Z" fill="#03CA8E"/>
<path d="M61.1607 87.3981C60.6544 87.7918 59.9073 87.875 59.0922 87.2229C57.921 86.0154 59.2522 84.2329 60.7756 84.7774C61.5797 84.9823 61.8743 85.5838 61.8192 86.1886C61.8154 86.4571 61.7384 86.7209 61.595 86.9507C61.4829 87.1302 61.3345 87.2823 61.1607 87.3981Z" fill="#03CA8E"/>
<path d="M79.1216 99.7637C81.0233 102.383 83.5073 104.525 86.3777 106.02C96.9334 111.921 107.38 103.625 108.283 93.6165C108.536 90.1897 107.617 86.7787 105.677 83.9428C103.736 81.1069 100.89 79.0146 97.6043 78.0089C94.3729 77.4 91.0459 77.5263 87.87 78.3786C78.4918 81.3495 74.7131 92.5349 79.1216 99.7637Z" fill="#03CA8E"/>
<path d="M33.7363 103.474C24.9604 113.372 5.40987 108.594 6.77896 91.9325H6.75158C7.1623 87.7021 8.38079 83.2115 11.5981 80.2269C17.581 74.6684 29.273 74.2987 34.8726 83.2525C36.9002 86.291 37.8857 89.9059 37.6808 93.553C37.4758 97.2 36.0915 100.682 33.7363 103.474Z" fill="#03CA8E"/>
<path d="M48.0026 92.9046C51.0694 100.489 65.1299 100.229 69.8259 94.7939C71.0443 93.4249 68.9633 91.2617 67.7312 92.6992C64.1168 96.9297 52.767 96.8065 50.8503 92.1242C50.7304 91.7658 50.4778 91.4669 50.1443 91.2889C49.8108 91.1109 49.4219 91.0674 49.0573 91.1673C48.6928 91.2672 48.3803 91.5029 48.1842 91.826C47.988 92.1491 47.9231 92.5351 48.0026 92.9046Z" fill="#03CA8E"/>
</g>
<defs>
<clipPath id="clip0">
<rect width="120" height="120" fill="white"/>
</clipPath>
</defs>
</svg>
