<svg xmlns="http://www.w3.org/2000/svg" viewBox="0 0 120 120"><defs><style>.cls-1{fill:none;}.cls-2{fill:#d1f3df;}.cls-3{fill:#13c8bd;}</style></defs><g id="레이어_2" data-name="레이어 2"><g id="green"><rect class="cls-1" width="120" height="120"/><path class="cls-2" d="M3.19,58.44c-3.36,34.68,25,64.67,73.08,53.39,25.88-6.08,45.08-33,38.51-60.38C103.54,4.54,58.61-3.43,26.94,14.77,12.06,23.32,4.93,40.43,3.19,58.44Z"/><path class="cls-3" d="M44.65,69.68c-1.08,1.36.72,3,1.7,1.57C47.1,69.83,45.58,68.76,44.65,69.68Z"/><path class="cls-3" d="M73.45,70.14a1.08,1.08,0,0,0-1.83.77c0,.61.07,1.15.68,1.35a.7.7,0,0,0,.4.09A1.33,1.33,0,0,0,73.45,70.14Z"/><path class="cls-3" d="M58.59,80c1.75,1.4,3.07-1.84.76-1.84a1.08,1.08,0,1,0,.92.31C59,77.46,57.62,79,58.59,80Z"/><path class="cls-3" d="M73.22,89.16a15.27,15.27,0,0,0,5.3,4.57c7.71,4.31,15.34-1.75,16-9.06a11.07,11.07,0,0,0-7.8-11.4,16,16,0,0,0-7.11.27C72.76,75.71,70,83.88,73.22,89.16"/><path class="cls-3" d="M20.38,83.44c-1,12.17,13.28,15.66,19.69,8.43A12.31,12.31,0,0,0,40.9,77.1c-4.09-6.54-12.63-6.27-17-2.21-2.35,2.18-3.24,5.46-3.54,8.55"/><path class="cls-3" d="M50.49,84.15C52.73,89.69,63,89.5,66.43,85.53c.89-1-.63-2.58-1.53-1.53-2.64,3.09-10.93,3-12.33-.42A1.08,1.08,0,0,0,50.49,84.15Z"/><path class="cls-3" d="M11.34,39.89c14.88,16.91,42,20.27,60.37,12.82C95,43.26,85.17,24.93,75.26,27.49c-3.44.89-5.84,4.22-6.36,7.62C66.85,48.5,87.56,65.86,107.53,58.17c1.28-.49.73-2.58-.57-2.07C84.54,64.78,63.64,40.43,73.26,31c7.18-7,20.59,9.92-1.64,19.37C53.15,58.29,26.47,54.1,12.74,38.49,11.84,37.46,10.43,38.86,11.34,39.89Z"/></g></g></svg>