<?xml version="1.0" encoding="utf-8"?>
<!-- Generator: Adobe Illustrator 25.2.1, SVG Export Plug-In . SVG Version: 6.00 Build 0)  -->
<svg version="1.1" xmlns="http://www.w3.org/2000/svg" xmlns:xlink="http://www.w3.org/1999/xlink" x="0px" y="0px"
	 viewBox="0 0 120 120" style="enable-background:new 0 0 120 120;" xml:space="preserve">
<style type="text/css">
	.st0{display:none;}
	.st1{display:inline;}
	.st2{fill:none;}
	.st3{fill:#F4EFEF;}
	.st4{fill:#222222;}
	.st5{fill:#FFF1A0;}
	.st6{fill:#FF9900;}
	.st7{display:inline;fill:#FFD5D0;}
	.st8{display:inline;fill:#F83362;}
	.st9{display:inline;fill:#D1F3DF;}
	.st10{display:inline;fill:#13C8BD;}
	.st11{display:inline;fill:#D7EEF3;}
	.st12{display:inline;fill:#3976EE;}
	.st13{display:inline;fill:#CDCDCD;}
	.st14{display:inline;fill:#212121;}
	.st15{display:inline;fill:#FFD9A0;}
	.st16{display:inline;fill:#F4512D;}
	.st17{display:inline;fill:#FFD0E7;}
	.st18{display:inline;fill:#F2489A;}
	.st19{display:inline;fill:#D1DFF3;}
	.st20{display:inline;fill:#5451EC;}
	.st21{display:inline;fill:#E7D7F3;}
	.st22{display:inline;fill:#B03CD9;}
</style>
<g id="gray" class="st0">
	<g id="box" class="st1">
		<rect y="0" class="st2" width="120" height="120"/>
	</g>
	<g class="st1">
		<path class="st3" d="M3.2,58.4c-3.4,34.7,25,64.7,73.1,53.4c25.9-6.1,45.1-33,38.5-60.4C103.5,4.5,58.6-3.4,26.9,14.8
			C12.1,23.3,4.9,40.4,3.2,58.4z"/>
		<path class="st4" d="M44.7,69.7c-1.1,1.4,0.7,3,1.7,1.6C47.1,69.8,45.6,68.8,44.7,69.7z"/>
		<path class="st4" d="M73.5,70.1c-0.6-0.6-1.8-0.3-1.8,0.8c0,0.6,0.1,1.2,0.7,1.4c0.1,0.1,0.3,0.1,0.4,0.1
			C74,72.2,74,70.6,73.5,70.1z"/>
		<path class="st4" d="M58.6,80c1.7,1.4,3.1-1.8,0.8-1.8c-1.3-0.1-1.6,2.1,0.2,2.1c0.9,0,1.5-1.1,0.8-1.8C59,77.5,57.6,79,58.6,80z"
			/>
		<path class="st4" d="M73.2,89.2c1.3,1.9,3.3,3.5,5.3,4.6c7.7,4.3,15.3-1.8,16-9.1c0.5-5-2.9-10.1-7.8-11.4
			c-1.8-0.5-5.3-0.3-7.1,0.3C72.8,75.7,70,83.9,73.2,89.2"/>
		<path class="st4" d="M20.4,83.4c-1,12.2,13.3,15.7,19.7,8.4c3.7-4.2,3.7-10.2,0.8-14.8c-4.1-6.5-12.6-6.3-17-2.2
			C21.6,77.1,20.7,80.3,20.4,83.4"/>
		<path class="st4" d="M50.5,84.2c2.2,5.5,12.5,5.3,15.9,1.4c0.9-1-0.6-2.6-1.5-1.5c-2.6,3.1-10.9,3-12.3-0.4
			C51.9,82,50.1,83.1,50.5,84.2z"/>
		<path class="st4" d="M11.3,39.9c14.9,16.9,42,20.3,60.4,12.8c23.3-9.4,13.5-27.8,3.5-25.2c-3.4,0.9-5.8,4.2-6.4,7.6
			c-2.1,13.4,18.7,30.7,38.6,23.1c1.3-0.5,0.7-2.6-0.6-2.1C84.5,64.8,63.6,40.4,73.3,31c7.2-7,20.6,9.9-1.6,19.4
			c-18.5,7.9-45.1,3.7-58.9-11.9C11.8,37.5,10.4,38.9,11.3,39.9z"/>
	</g>
</g>
<g id="yellow">
	<g id="box_사본">
		<rect y="0" class="st2" width="120" height="120"/>
	</g>
	<path class="st5" d="M3.2,58.4c-3.4,34.7,25,64.7,73.1,53.4c25.9-6.1,45.1-33,38.5-60.4C103.5,4.5,58.6-3.4,26.9,14.8
		C12.1,23.3,4.9,40.4,3.2,58.4z"/>
	<path class="st6" d="M44.7,69.7c-1.1,1.4,0.7,3,1.7,1.6C47.1,69.8,45.6,68.8,44.7,69.7z"/>
	<path class="st6" d="M73.5,70.1c-0.6-0.6-1.8-0.3-1.8,0.8c0,0.6,0.1,1.2,0.7,1.4c0.1,0.1,0.3,0.1,0.4,0.1
		C74,72.2,74,70.6,73.5,70.1z"/>
	<path class="st6" d="M58.6,80c1.7,1.4,3.1-1.8,0.8-1.8c-1.3-0.1-1.6,2.1,0.2,2.1c0.9,0,1.5-1.1,0.8-1.8C59,77.5,57.6,79,58.6,80z"
		/>
	<path class="st6" d="M73.2,89.2c1.3,1.9,3.3,3.5,5.3,4.6c7.7,4.3,15.3-1.8,16-9.1c0.5-5-2.9-10.1-7.8-11.4
		c-1.8-0.5-5.3-0.3-7.1,0.3C72.8,75.7,70,83.9,73.2,89.2"/>
	<path class="st6" d="M20.4,83.4c-1,12.2,13.3,15.7,19.7,8.4c3.7-4.2,3.7-10.2,0.8-14.8c-4.1-6.5-12.6-6.3-17-2.2
		C21.6,77.1,20.7,80.3,20.4,83.4"/>
	<path class="st6" d="M50.5,84.2c2.2,5.5,12.5,5.3,15.9,1.4c0.9-1-0.6-2.6-1.5-1.5c-2.6,3.1-10.9,3-12.3-0.4
		C51.9,82,50.1,83.1,50.5,84.2z"/>
	<path class="st6" d="M11.3,39.9c14.9,16.9,42,20.3,60.4,12.8c23.3-9.4,13.5-27.8,3.5-25.2c-3.4,0.9-5.8,4.2-6.4,7.6
		c-2.1,13.4,18.7,30.7,38.6,23.1c1.3-0.5,0.7-2.6-0.6-2.1C84.5,64.8,63.6,40.4,73.3,31c7.2-7,20.6,9.9-1.6,19.4
		c-18.5,7.9-45.1,3.7-58.9-11.9C11.8,37.5,10.4,38.9,11.3,39.9z"/>
</g>
<g id="red" class="st0">
	<path class="st7" d="M3.2,58.4c-3.4,34.7,25,64.7,73.1,53.4c25.9-6.1,45.1-33,38.5-60.4C103.5,4.5,58.6-3.4,26.9,14.8
		C12.1,23.3,4.9,40.4,3.2,58.4z"/>
	<path class="st8" d="M44.7,69.7c-1.1,1.4,0.7,3,1.7,1.6C47.1,69.8,45.6,68.8,44.7,69.7z"/>
	<path class="st8" d="M73.5,70.1c-0.6-0.6-1.8-0.3-1.8,0.8c0,0.6,0.1,1.2,0.7,1.4c0.1,0.1,0.3,0.1,0.4,0.1
		C74,72.2,74,70.6,73.5,70.1z"/>
	<path class="st8" d="M58.6,80c1.7,1.4,3.1-1.8,0.8-1.8c-1.3-0.1-1.6,2.1,0.2,2.1c0.9,0,1.5-1.1,0.8-1.8C59,77.5,57.6,79,58.6,80z"
		/>
	<path class="st8" d="M73.2,89.2c1.3,1.9,3.3,3.5,5.3,4.6c7.7,4.3,15.3-1.8,16-9.1c0.5-5-2.9-10.1-7.8-11.4
		c-1.8-0.5-5.3-0.3-7.1,0.3C72.8,75.7,70,83.9,73.2,89.2"/>
	<path class="st8" d="M20.4,83.4c-1,12.2,13.3,15.7,19.7,8.4c3.7-4.2,3.7-10.2,0.8-14.8c-4.1-6.5-12.6-6.3-17-2.2
		C21.6,77.1,20.7,80.3,20.4,83.4"/>
	<path class="st8" d="M50.5,84.2c2.2,5.5,12.5,5.3,15.9,1.4c0.9-1-0.6-2.6-1.5-1.5c-2.6,3.1-10.9,3-12.3-0.4
		C51.9,82,50.1,83.1,50.5,84.2z"/>
	<path class="st8" d="M11.3,39.9c14.9,16.9,42,20.3,60.4,12.8c23.3-9.4,13.5-27.8,3.5-25.2c-3.4,0.9-5.8,4.2-6.4,7.6
		c-2.1,13.4,18.7,30.7,38.6,23.1c1.3-0.5,0.7-2.6-0.6-2.1C84.5,64.8,63.6,40.4,73.3,31c7.2-7,20.6,9.9-1.6,19.4
		c-18.5,7.9-45.1,3.7-58.9-11.9C11.8,37.5,10.4,38.9,11.3,39.9z"/>
</g>
<g id="green" class="st0">
	<path class="st9" d="M3.2,58.4c-3.4,34.7,25,64.7,73.1,53.4c25.9-6.1,45.1-33,38.5-60.4C103.5,4.5,58.6-3.4,26.9,14.8
		C12.1,23.3,4.9,40.4,3.2,58.4z"/>
	<path class="st10" d="M44.7,69.7c-1.1,1.4,0.7,3,1.7,1.6C47.1,69.8,45.6,68.8,44.7,69.7z"/>
	<path class="st10" d="M73.5,70.1c-0.6-0.6-1.8-0.3-1.8,0.8c0,0.6,0.1,1.2,0.7,1.4c0.1,0.1,0.3,0.1,0.4,0.1
		C74,72.2,74,70.6,73.5,70.1z"/>
	<path class="st10" d="M58.6,80c1.7,1.4,3.1-1.8,0.8-1.8c-1.3-0.1-1.6,2.1,0.2,2.1c0.9,0,1.5-1.1,0.8-1.8C59,77.5,57.6,79,58.6,80z"
		/>
	<path class="st10" d="M73.2,89.2c1.3,1.9,3.3,3.5,5.3,4.6c7.7,4.3,15.3-1.8,16-9.1c0.5-5-2.9-10.1-7.8-11.4
		c-1.8-0.5-5.3-0.3-7.1,0.3C72.8,75.7,70,83.9,73.2,89.2"/>
	<path class="st10" d="M20.4,83.4c-1,12.2,13.3,15.7,19.7,8.4c3.7-4.2,3.7-10.2,0.8-14.8c-4.1-6.5-12.6-6.3-17-2.2
		C21.6,77.1,20.7,80.3,20.4,83.4"/>
	<path class="st10" d="M50.5,84.2c2.2,5.5,12.5,5.3,15.9,1.4c0.9-1-0.6-2.6-1.5-1.5c-2.6,3.1-10.9,3-12.3-0.4
		C51.9,82,50.1,83.1,50.5,84.2z"/>
	<path class="st10" d="M11.3,39.9c14.9,16.9,42,20.3,60.4,12.8c23.3-9.4,13.5-27.8,3.5-25.2c-3.4,0.9-5.8,4.2-6.4,7.6
		c-2.1,13.4,18.7,30.7,38.6,23.1c1.3-0.5,0.7-2.6-0.6-2.1C84.5,64.8,63.6,40.4,73.3,31c7.2-7,20.6,9.9-1.6,19.4
		c-18.5,7.9-45.1,3.7-58.9-11.9C11.8,37.5,10.4,38.9,11.3,39.9z"/>
</g>
<g id="blue" class="st0">
	<path class="st11" d="M3.2,58.4c-3.4,34.7,25,64.7,73.1,53.4c25.9-6.1,45.1-33,38.5-60.4C103.5,4.5,58.6-3.4,26.9,14.8
		C12.1,23.3,4.9,40.4,3.2,58.4z"/>
	<path class="st12" d="M44.7,69.7c-1.1,1.4,0.7,3,1.7,1.6C47.1,69.8,45.6,68.8,44.7,69.7z"/>
	<path class="st12" d="M73.5,70.1c-0.6-0.6-1.8-0.3-1.8,0.8c0,0.6,0.1,1.2,0.7,1.4c0.1,0.1,0.3,0.1,0.4,0.1
		C74,72.2,74,70.6,73.5,70.1z"/>
	<path class="st12" d="M58.6,80c1.7,1.4,3.1-1.8,0.8-1.8c-1.3-0.1-1.6,2.1,0.2,2.1c0.9,0,1.5-1.1,0.8-1.8C59,77.5,57.6,79,58.6,80z"
		/>
	<path class="st12" d="M73.2,89.2c1.3,1.9,3.3,3.5,5.3,4.6c7.7,4.3,15.3-1.8,16-9.1c0.5-5-2.9-10.1-7.8-11.4
		c-1.8-0.5-5.3-0.3-7.1,0.3C72.8,75.7,70,83.9,73.2,89.2"/>
	<path class="st12" d="M20.4,83.4c-1,12.2,13.3,15.7,19.7,8.4c3.7-4.2,3.7-10.2,0.8-14.8c-4.1-6.5-12.6-6.3-17-2.2
		C21.6,77.1,20.7,80.3,20.4,83.4"/>
	<path class="st12" d="M50.5,84.2c2.2,5.5,12.5,5.3,15.9,1.4c0.9-1-0.6-2.6-1.5-1.5c-2.6,3.1-10.9,3-12.3-0.4
		C51.9,82,50.1,83.1,50.5,84.2z"/>
	<path class="st12" d="M11.3,39.9c14.9,16.9,42,20.3,60.4,12.8c23.3-9.4,13.5-27.8,3.5-25.2c-3.4,0.9-5.8,4.2-6.4,7.6
		c-2.1,13.4,18.7,30.7,38.6,23.1c1.3-0.5,0.7-2.6-0.6-2.1C84.5,64.8,63.6,40.4,73.3,31c7.2-7,20.6,9.9-1.6,19.4
		c-18.5,7.9-45.1,3.7-58.9-11.9C11.8,37.5,10.4,38.9,11.3,39.9z"/>
</g>
<g id="dark_x5F_gray" class="st0">
	<path class="st13" d="M3.2,58.4c-3.4,34.7,25,64.7,73.1,53.4c25.9-6.1,45.1-33,38.5-60.4C103.5,4.5,58.6-3.4,26.9,14.8
		C12.1,23.3,4.9,40.4,3.2,58.4z"/>
	<path class="st14" d="M44.7,69.7c-1.1,1.4,0.7,3,1.7,1.6C47.1,69.8,45.6,68.8,44.7,69.7z"/>
	<path class="st14" d="M73.5,70.1c-0.6-0.6-1.8-0.3-1.8,0.8c0,0.6,0.1,1.2,0.7,1.4c0.1,0.1,0.3,0.1,0.4,0.1
		C74,72.2,74,70.6,73.5,70.1z"/>
	<path class="st14" d="M58.6,80c1.7,1.4,3.1-1.8,0.8-1.8c-1.3-0.1-1.6,2.1,0.2,2.1c0.9,0,1.5-1.1,0.8-1.8C59,77.5,57.6,79,58.6,80z"
		/>
	<path class="st14" d="M73.2,89.2c1.3,1.9,3.3,3.5,5.3,4.6c7.7,4.3,15.3-1.8,16-9.1c0.5-5-2.9-10.1-7.8-11.4
		c-1.8-0.5-5.3-0.3-7.1,0.3C72.8,75.7,70,83.9,73.2,89.2"/>
	<path class="st14" d="M20.4,83.4c-1,12.2,13.3,15.7,19.7,8.4c3.7-4.2,3.7-10.2,0.8-14.8c-4.1-6.5-12.6-6.3-17-2.2
		C21.6,77.1,20.7,80.3,20.4,83.4"/>
	<path class="st14" d="M50.5,84.2c2.2,5.5,12.5,5.3,15.9,1.4c0.9-1-0.6-2.6-1.5-1.5c-2.6,3.1-10.9,3-12.3-0.4
		C51.9,82,50.1,83.1,50.5,84.2z"/>
	<path class="st14" d="M11.3,39.9c14.9,16.9,42,20.3,60.4,12.8c23.3-9.4,13.5-27.8,3.5-25.2c-3.4,0.9-5.8,4.2-6.4,7.6
		c-2.1,13.4,18.7,30.7,38.6,23.1c1.3-0.5,0.7-2.6-0.6-2.1C84.5,64.8,63.6,40.4,73.3,31c7.2-7,20.6,9.9-1.6,19.4
		c-18.5,7.9-45.1,3.7-58.9-11.9C11.8,37.5,10.4,38.9,11.3,39.9z"/>
</g>
<g id="orange" class="st0">
	<path class="st15" d="M3.2,58.4c-3.4,34.7,25,64.7,73.1,53.4c25.9-6.1,45.1-33,38.5-60.4C103.5,4.5,58.6-3.4,26.9,14.8
		C12.1,23.3,4.9,40.4,3.2,58.4z"/>
	<path class="st16" d="M44.7,69.7c-1.1,1.4,0.7,3,1.7,1.6C47.1,69.8,45.6,68.8,44.7,69.7z"/>
	<path class="st16" d="M73.5,70.1c-0.6-0.6-1.8-0.3-1.8,0.8c0,0.6,0.1,1.2,0.7,1.4c0.1,0.1,0.3,0.1,0.4,0.1
		C74,72.2,74,70.6,73.5,70.1z"/>
	<path class="st16" d="M58.6,80c1.7,1.4,3.1-1.8,0.8-1.8c-1.3-0.1-1.6,2.1,0.2,2.1c0.9,0,1.5-1.1,0.8-1.8C59,77.5,57.6,79,58.6,80z"
		/>
	<path class="st16" d="M73.2,89.2c1.3,1.9,3.3,3.5,5.3,4.6c7.7,4.3,15.3-1.8,16-9.1c0.5-5-2.9-10.1-7.8-11.4
		c-1.8-0.5-5.3-0.3-7.1,0.3C72.8,75.7,70,83.9,73.2,89.2"/>
	<path class="st16" d="M20.4,83.4c-1,12.2,13.3,15.7,19.7,8.4c3.7-4.2,3.7-10.2,0.8-14.8c-4.1-6.5-12.6-6.3-17-2.2
		C21.6,77.1,20.7,80.3,20.4,83.4"/>
	<path class="st16" d="M50.5,84.2c2.2,5.5,12.5,5.3,15.9,1.4c0.9-1-0.6-2.6-1.5-1.5c-2.6,3.1-10.9,3-12.3-0.4
		C51.9,82,50.1,83.1,50.5,84.2z"/>
	<path class="st16" d="M11.3,39.9c14.9,16.9,42,20.3,60.4,12.8c23.3-9.4,13.5-27.8,3.5-25.2c-3.4,0.9-5.8,4.2-6.4,7.6
		c-2.1,13.4,18.7,30.7,38.6,23.1c1.3-0.5,0.7-2.6-0.6-2.1C84.5,64.8,63.6,40.4,73.3,31c7.2-7,20.6,9.9-1.6,19.4
		c-18.5,7.9-45.1,3.7-58.9-11.9C11.8,37.5,10.4,38.9,11.3,39.9z"/>
</g>
<g id="pink" class="st0">
	<path class="st17" d="M3.2,58.4c-3.4,34.7,25,64.7,73.1,53.4c25.9-6.1,45.1-33,38.5-60.4C103.5,4.5,58.6-3.4,26.9,14.8
		C12.1,23.3,4.9,40.4,3.2,58.4z"/>
	<path class="st18" d="M44.7,69.7c-1.1,1.4,0.7,3,1.7,1.6C47.1,69.8,45.6,68.8,44.7,69.7z"/>
	<path class="st18" d="M73.5,70.1c-0.6-0.6-1.8-0.3-1.8,0.8c0,0.6,0.1,1.2,0.7,1.4c0.1,0.1,0.3,0.1,0.4,0.1
		C74,72.2,74,70.6,73.5,70.1z"/>
	<path class="st18" d="M58.6,80c1.7,1.4,3.1-1.8,0.8-1.8c-1.3-0.1-1.6,2.1,0.2,2.1c0.9,0,1.5-1.1,0.8-1.8C59,77.5,57.6,79,58.6,80z"
		/>
	<path class="st18" d="M73.2,89.2c1.3,1.9,3.3,3.5,5.3,4.6c7.7,4.3,15.3-1.8,16-9.1c0.5-5-2.9-10.1-7.8-11.4
		c-1.8-0.5-5.3-0.3-7.1,0.3C72.8,75.7,70,83.9,73.2,89.2"/>
	<path class="st18" d="M20.4,83.4c-1,12.2,13.3,15.7,19.7,8.4c3.7-4.2,3.7-10.2,0.8-14.8c-4.1-6.5-12.6-6.3-17-2.2
		C21.6,77.1,20.7,80.3,20.4,83.4"/>
	<path class="st18" d="M50.5,84.2c2.2,5.5,12.5,5.3,15.9,1.4c0.9-1-0.6-2.6-1.5-1.5c-2.6,3.1-10.9,3-12.3-0.4
		C51.9,82,50.1,83.1,50.5,84.2z"/>
	<path class="st18" d="M11.3,39.9c14.9,16.9,42,20.3,60.4,12.8c23.3-9.4,13.5-27.8,3.5-25.2c-3.4,0.9-5.8,4.2-6.4,7.6
		c-2.1,13.4,18.7,30.7,38.6,23.1c1.3-0.5,0.7-2.6-0.6-2.1C84.5,64.8,63.6,40.4,73.3,31c7.2-7,20.6,9.9-1.6,19.4
		c-18.5,7.9-45.1,3.7-58.9-11.9C11.8,37.5,10.4,38.9,11.3,39.9z"/>
</g>
<g id="navy" class="st0">
	<path class="st19" d="M3.2,58.4c-3.4,34.7,25,64.7,73.1,53.4c25.9-6.1,45.1-33,38.5-60.4C103.5,4.5,58.6-3.4,26.9,14.8
		C12.1,23.3,4.9,40.4,3.2,58.4z"/>
	<path class="st20" d="M44.7,69.7c-1.1,1.4,0.7,3,1.7,1.6C47.1,69.8,45.6,68.8,44.7,69.7z"/>
	<path class="st20" d="M73.5,70.1c-0.6-0.6-1.8-0.3-1.8,0.8c0,0.6,0.1,1.2,0.7,1.4c0.1,0.1,0.3,0.1,0.4,0.1
		C74,72.2,74,70.6,73.5,70.1z"/>
	<path class="st20" d="M58.6,80c1.7,1.4,3.1-1.8,0.8-1.8c-1.3-0.1-1.6,2.1,0.2,2.1c0.9,0,1.5-1.1,0.8-1.8C59,77.5,57.6,79,58.6,80z"
		/>
	<path class="st20" d="M73.2,89.2c1.3,1.9,3.3,3.5,5.3,4.6c7.7,4.3,15.3-1.8,16-9.1c0.5-5-2.9-10.1-7.8-11.4
		c-1.8-0.5-5.3-0.3-7.1,0.3C72.8,75.7,70,83.9,73.2,89.2"/>
	<path class="st20" d="M20.4,83.4c-1,12.2,13.3,15.7,19.7,8.4c3.7-4.2,3.7-10.2,0.8-14.8c-4.1-6.5-12.6-6.3-17-2.2
		C21.6,77.1,20.7,80.3,20.4,83.4"/>
	<path class="st20" d="M50.5,84.2c2.2,5.5,12.5,5.3,15.9,1.4c0.9-1-0.6-2.6-1.5-1.5c-2.6,3.1-10.9,3-12.3-0.4
		C51.9,82,50.1,83.1,50.5,84.2z"/>
	<path class="st20" d="M11.3,39.9c14.9,16.9,42,20.3,60.4,12.8c23.3-9.4,13.5-27.8,3.5-25.2c-3.4,0.9-5.8,4.2-6.4,7.6
		c-2.1,13.4,18.7,30.7,38.6,23.1c1.3-0.5,0.7-2.6-0.6-2.1C84.5,64.8,63.6,40.4,73.3,31c7.2-7,20.6,9.9-1.6,19.4
		c-18.5,7.9-45.1,3.7-58.9-11.9C11.8,37.5,10.4,38.9,11.3,39.9z"/>
</g>
<g id="purple" class="st0">
	<path class="st21" d="M3.2,58.4c-3.4,34.7,25,64.7,73.1,53.4c25.9-6.1,45.1-33,38.5-60.4C103.5,4.5,58.6-3.4,26.9,14.8
		C12.1,23.3,4.9,40.4,3.2,58.4z"/>
	<path class="st22" d="M44.7,69.7c-1.1,1.4,0.7,3,1.7,1.6C47.1,69.8,45.6,68.8,44.7,69.7z"/>
	<path class="st22" d="M73.5,70.1c-0.6-0.6-1.8-0.3-1.8,0.8c0,0.6,0.1,1.2,0.7,1.4c0.1,0.1,0.3,0.1,0.4,0.1
		C74,72.2,74,70.6,73.5,70.1z"/>
	<path class="st22" d="M58.6,80c1.7,1.4,3.1-1.8,0.8-1.8c-1.3-0.1-1.6,2.1,0.2,2.1c0.9,0,1.5-1.1,0.8-1.8C59,77.5,57.6,79,58.6,80z"
		/>
	<path class="st22" d="M73.2,89.2c1.3,1.9,3.3,3.5,5.3,4.6c7.7,4.3,15.3-1.8,16-9.1c0.5-5-2.9-10.1-7.8-11.4
		c-1.8-0.5-5.3-0.3-7.1,0.3C72.8,75.7,70,83.9,73.2,89.2"/>
	<path class="st22" d="M20.4,83.4c-1,12.2,13.3,15.7,19.7,8.4c3.7-4.2,3.7-10.2,0.8-14.8c-4.1-6.5-12.6-6.3-17-2.2
		C21.6,77.1,20.7,80.3,20.4,83.4"/>
	<path class="st22" d="M50.5,84.2c2.2,5.5,12.5,5.3,15.9,1.4c0.9-1-0.6-2.6-1.5-1.5c-2.6,3.1-10.9,3-12.3-0.4
		C51.9,82,50.1,83.1,50.5,84.2z"/>
	<path class="st22" d="M11.3,39.9c14.9,16.9,42,20.3,60.4,12.8c23.3-9.4,13.5-27.8,3.5-25.2c-3.4,0.9-5.8,4.2-6.4,7.6
		c-2.1,13.4,18.7,30.7,38.6,23.1c1.3-0.5,0.7-2.6-0.6-2.1C84.5,64.8,63.6,40.4,73.3,31c7.2-7,20.6,9.9-1.6,19.4
		c-18.5,7.9-45.1,3.7-58.9-11.9C11.8,37.5,10.4,38.9,11.3,39.9z"/>
</g>
</svg>
