<svg width="48" height="48" viewBox="0 0 48 48" fill="none" xmlns="http://www.w3.org/2000/svg">
<path fill-rule="evenodd" clip-rule="evenodd" d="M24.0001 36C28.9707 36 33.0001 31.9706 33.0001 27C33.0001 22.0294 28.9707 18 24.0001 18C19.0295 18 15.0001 22.0294 15.0001 27C15.0001 31.9706 19.0295 36 24.0001 36ZM31.0001 27C31.0001 30.866 27.8661 34 24.0001 34C20.1341 34 17.0001 30.866 17.0001 27C17.0001 23.134 20.1341 20 24.0001 20C27.8661 20 31.0001 23.134 31.0001 27Z" fill="#222222"/>
<path fill-rule="evenodd" clip-rule="evenodd" d="M36 11H33.9812C33.7258 7.64378 30.9217 5 27.5001 5H20.5001C17.0785 5 14.2744 7.64378 14.019 11H12C7.58172 11 4 14.5817 4 19V35C4 39.4183 7.58172 43 12 43H36C40.4183 43 44 39.4183 44 35V19C44 14.5817 40.4183 11 36 11ZM20.5001 7H27.5001C29.8164 7 31.7239 8.75002 31.9726 11H16.0276C16.2763 8.75002 18.1838 7 20.5001 7ZM36 13H12C8.68629 13 6 15.6863 6 19V35C6 38.3137 8.68629 41 12 41H36C39.3137 41 42 38.3137 42 35V19C42 15.6863 39.3137 13 36 13Z" fill="#222222"/>
</svg>
